# AST/ASF file generated using VICON BodyLanguage
# -----------------------------------------------
:version 1.10
:name VICON
:units
  mass 1.0
  length 0.45
  angle deg
:documentation
   .ast/.asf automatically generated from VICON data using
   VICON BodyBuilder and BodyLanguage model FoxedUp or BRILLIANT.MOD
:root
   order TX TY TZ RX RY RZ
   axis XYZ
   position 0 0 0  
   orientation 0 0 0 
:bonedata
  begin
     id 1 
     name lhipjoint
     direction 0.575328 -0.747301 0.332475 
     length 2.40933 
     axis 0 0 0  XYZ
  end
  begin
     id 2 
     name lfemur
     direction 0.34202 -0.939693 0  
     length 7.31453  
     axis 0 0 20  XYZ
    dof rx ry rz
    limits (-160.0 20.0)
           (-70.0 70.0)
           (-60.0 70.0)
  end
  begin
     id 3 
     name ltibia
     direction 0.34202 -0.939693 0   
     length 7.82185   
     axis 0 0 20   XYZ
    dof rx
    limits (-10.0 170.0)
  end
  begin
     id 4 
     name lfoot
     direction 0.0795993 -0.218697 0.972541   
     length 2.19173   
     axis -90 7.62852e-016 20   XYZ
    dof rx rz
    limits (-45.0 90.0)
           (-70.0 20.0)
  end
  begin
     id 5 
     name ltoes
     direction 1.53537e-011 -4.21894e-011 1   
     length 1.10023   
     axis -90 7.62852e-016 20   XYZ
    dof rx
    limits (-90.0 20.0)
  end
  begin
     id 6 
     name rhipjoint
     direction -0.513884 -0.783789 0.348708   
     length 2.29716  
     axis 0 0 0  XYZ 
  end
  begin
     id 7 
     name rfemur
     direction -0.34202 -0.939693 0   
     length 7.59573   
     axis 0 0 -20   XYZ
    dof rx ry rz
    limits (-160.0 20.0)
           (-70.0 70.0)
           (-70.0 60.0)
  end
  begin
     id 8 
     name rtibia
     direction -0.34202 -0.939693 0   
     length 7.66402   
     axis 0 0 -20   XYZ
    dof rx
    limits (-10.0 170.0)
 end
 begin
     id 9 
     name rfoot
     direction -0.137793 -0.378584 0.915253   
     length 2.27056  
     axis -90 -7.62852e-016 -20   XYZ
    dof rx rz
    limits (-45.0 90.0)
           (-20.0 70.0)
  end
  begin
     id 10 
     name rtoes
     direction -1.53493e-011 -4.22159e-011 1   
     length 1.11766   
     axis -90 -7.62852e-016 -20   XYZ
    dof rx
    limits (-90.0 20.0)
  end
  begin
     id 11 
     name lowerback
     direction -0.00732775 0.998356 -0.05685   
     length 2.16513   
     axis 0 0 0   XYZ
    dof rx ry rz
    limits (-20.0 45.0)
           (-30.0 30.0)
           (-30.0 30.0)
  end
  begin
     id 12 
     name upperback
     direction 0.0218081 0.999627 -0.0164647   
     length 2.16755   
     axis 0 0 0   XYZ
    dof rx ry rz
    limits (-20.0 45.0)
           (-30.0 30.0)
           (-30.0 30.0)
  end
  begin
     id 13 
     name thorax
     direction 0.02365 0.999661 0.0108914   
     length 2.16932   
     axis 0 0 0   XYZ
    dof rx ry rz
    limits (-20.0 45.0)
           (-30.0 30.0)
           (-30.0 30.0)
  end
  begin
     id 14 
     name lowerneck
     direction -0.0523929 0.978385 0.200044   
     length 1.63877   
     axis 0 0 0   XYZ
    dof rx ry rz
    limits (-20.0 45.0)
           (-30.0 30.0)
           (-30.0 30.0)
  end
  begin
     id 15 
     name upperneck
     direction 0.0448674 0.981321 -0.187074   
     length 1.69014   
     axis 0 0 0   XYZ
    dof rx ry rz
    limits (-20.0 45.0)
           (-30.0 30.0)
           (-30.0 30.0)
  end
  begin
     id 16
     name head
     direction 0.0199089 0.996118 -0.0857429  
     length 1.70094  
     axis 0 0 0   XYZ
    dof rx ry rz
    limits (-20.0 45.0)
           (-30.0 30.0)
           (-30.0 30.0)
  end
  begin
     id 17 
     name lclavicle
     direction 0.940366 0.30191 -0.156722  
     length 3.37521  
     axis 0 0 0   XYZ
    dof ry rz
    limits (-20.0 10.0)
           (0.0 20.0)
  end
  begin
     id 18 
     name lhumerus
     direction 1 -4.4897e-011 -1.7911e-027   
     length 5.25287   
     axis 180 -30 -90   XYZ
    dof rx ry rz
    limits (-60.0 90.0)
           (-90.0 90.0)
           (-90.0 90.0)
  end
  begin
     id 19
     name lradius
     direction 1 -4.48951e-011 1.04424e-027   
     length 3.51014   
     axis 180 -30 -90   XYZ
    dof rx
    limits (-10.0 170.0)
  end
  begin
     id 20
     name lwrist
     direction 1 -4.48997e-011 -9.5942e-028   
     length 1.75507   
     axis 8.48502e-016 90 90   XYZ
    dof ry
    limits (-180.0 0.0)
 end
  begin
     id 21 
     name lhand
     direction 1 -4.48831e-011 -1.90777e-027   
     length 0.706179   
     axis 1.22306e-015 90 90   XYZ
    dof rx rz
    limits (-90.0 90.0)
           (-45.0 45.0)
  end
  begin
     id 22 
     name lfingers
     direction 1 -4.49108e-011 -3.85244e-027   
     length 0.569339   
     axis 2.44611e-015 90 90   XYZ
    dof rx
    limits (0.0 90.0)
  end
  begin
     id 23
     name lthumb
     direction 0.707107 -6.34953e-011 0.707107   
     length 0.817461   
     axis -90 45 -1.62303e-014   XYZ
    dof rx rz
    limits (-45.0 45.0)
           (-45.0 45.0)
  end
  begin
     id 24 
     name rclavicle
     direction -0.905329 0.382405 -0.184787   
     length 3.30787  
     axis 0 0 0   XYZ 
    dof ry rz
    limits (-10.0 20.0)
           (-20.0 0.0)
  end
  begin
     id 25 
     name rhumerus
     direction -1 -4.48953e-011 -9.15316e-029  
     length 5.28721   
     axis 180 30 90   XYZ
    dof rx ry rz
    limits (-90.0 60.0)
           (-90.0 90.0)
           (-90.0 90.0)
  end
  begin
     id 26 
     name rradius
     direction -1 -4.48987e-011 9.37824e-028   
     length 3.50544   
     axis 180 30 90   XYZ
    dof rx
    limits (-10.0 170.0)
  end
  begin
     id 27 
     name rwrist
     direction -1 -4.48967e-011 -9.58414e-028   
     length 1.75272   
     axis 8.48502e-016 -90 -90   XYZ
    dof ry
    limits (-180.0 0.0)
  end
  begin
     id 28
     name rhand
     direction -1 -4.48904e-011 -1.91266e-027   
     length 0.884996   
     axis 1.22306e-015 -90 -90   XYZ
    dof rx rz
    limits (-90.0 90.0)
           (-45.0 45.0)
  end
  begin
     id 29
     name rfingers
     direction -1 -4.4909e-011 -3.85015e-027   
     length 0.713507   
     axis 2.44611e-015 -90 -90   XYZ
    dof rx
    limits (0.0 90.0)
  end
  begin
     id 30
     name rthumb
     direction -0.707107 -6.34853e-011 0.707107   
     length 1.02446   
     axis -90 -45 1.62303e-014   XYZ
    dof rx rz
    limits (-45.0 45.0)
           (-45.0 45.0)
  end
:hierarchy
  begin
    root lhipjoint rhipjoint lowerback
    lhipjoint lfemur
    lfemur ltibia
    ltibia lfoot
    lfoot ltoes
    rhipjoint rfemur
    rfemur rtibia
    rtibia rfoot
    rfoot rtoes
    lowerback upperback
    upperback thorax
    thorax lowerneck lclavicle rclavicle
    lowerneck upperneck
    upperneck head
    lclavicle lhumerus
    lhumerus lradius
    lradius lwrist
    lwrist lhand lthumb
    lhand lfingers
    rclavicle rhumerus
    rhumerus rradius
    rradius rwrist
    rwrist rhand rthumb
    rhand rfingers
  end

#!OML:ASF F:\twosubjects\two\Thursday\Session 1\justin.ASF
:FULLY-SPECIFIED
:DEGREES
82
root 9.07345 15.0494 -16.5258 5.23168 28.6625 -12.082
lowerback 28.8067 0.51238 1.76217
upperback 6.38805 1.85361 4.8097
thorax -8.83642 0.937275 3.72761
lowerneck -11.6612 -16.8385 -14.3615
upperneck -6.55444 -21.2519 24.1219
head 4.28529 -10.0569 7.48983
rclavicle -6.60959e-015 7.15625e-015
rhumerus -11.6972 12.1205 -94.8919
rradius 96.928
rwrist -7.71011
rhand -37.3594 42.366
rfingers 7.12502
rthumb -10.4214 12.6443
lclavicle -6.60959e-015 7.15625e-015
lhumerus 0.265881 -22.3932 92.6477
lradius 95.3068
lwrist 12.6683
lhand -24.2735 47.4851
lfingers 7.12502
lthumb 2.21325 77.4534
rfemur -20.1215 -16.041 0.8242
rtibia 72.666
rfoot 13.0503 0.77856
rtoes -18.6347
lfemur -66.3581 27.8335 -10.2897
ltibia 55.4574
lfoot -7.69525 -4.78709
ltoes -16.3291
83
root 9.10868 15.1406 -16.4078 5.16838 29.3972 -11.8329
lowerback 28.3385 0.706261 0.97044
upperback 6.19437 1.92967 5.36117
thorax -8.87436 1.00079 4.78919
lowerneck -11.6689 -17.0771 -14.8279
upperneck -5.90927 -21.611 23.8712
head 4.55195 -10.1947 7.38906
rclavicle -1.70209e-014 -3.52346e-014
rhumerus -11.4342 14.0485 -93.6337
rradius 97.5857
rwrist -7.02487
rhand -36.4979 41.1122
rfingers 7.12502
rthumb -9.59023 11.3504
lclavicle -1.70209e-014 -3.52346e-014
lhumerus -0.373227 -21.0151 92.6902
lradius 96.7407
lwrist 13.8785
lhand -23.8417 47.1309
lfingers 7.12502
lthumb 2.63023 77.0944
rfemur -19.9224 -16.3823 0.580299
rtibia 73.4754
rfoot 10.6117 2.27627
rtoes -24.3527
lfemur -65.8048 28.3293 -11.6041
ltibia 54.6838
lfoot -6.83525 -0.0718886
ltoes -26.9308
84
root 9.14702 15.2807 -16.3025 4.93994 30.1443 -12.1585
lowerback 27.8699 0.64765 1.08086
upperback 5.95617 1.92338 5.72769
thorax -8.92136 1.0047 5.1447
lowerneck -11.6457 -17.3304 -15.0916
upperneck -5.30055 -22.0273 23.811
head 4.82248 -10.3657 7.30708
rclavicle 8.49804e-015 -2.01766e-014
rhumerus -10.8241 15.5285 -92.9406
rradius 98.0959
rwrist -6.36419
rhand -35.1399 39.8311
rfingers 7.12502
rthumb -8.2798 10.0134
lclavicle 8.49804e-015 -2.01766e-014
lhumerus -0.829647 -19.6657 92.1114
lradius 98.2753
lwrist 15.1693
lhand -23.4129 47.426
lfingers 7.12502
lthumb 3.04433 77.384
rfemur -19.9957 -16.6804 1.15051
rtibia 74.2321
rfoot 6.3979 0.668
rtoes -33.1644
lfemur -64.4527 27.9757 -10.5757
ltibia 54.2486
lfoot -5.44146 2.11981
ltoes -18.7359
85
root 9.19439 15.3906 -16.2001 4.89613 30.7486 -12.4122
lowerback 27.0446 0.686089 1.33577
upperback 5.79212 2.04816 6.00682
thorax -8.70673 1.06337 5.26354
lowerneck -11.6695 -17.698 -15.3509
upperneck -4.74453 -22.5936 23.8235
head 5.12341 -10.6071 7.21067
rclavicle -6.03311e-014 1.27222e-014
rhumerus -9.68363 16.5654 -92.0169
rradius 98.613
rwrist -5.50819
rhand -33.8107 39.0597
rfingers 7.12502
rthumb -6.99682 9.19532
lclavicle -6.03311e-014 1.27222e-014
lhumerus -1.01158 -18.6173 91.4395
lradius 99.7929
lwrist 16.3695
lhand -22.4401 47.7189
lfingers 7.12502
lthumb 3.98382 77.6614
rfemur -20.4707 -17.0581 1.56785
rtibia 75.1336
rfoot 3.71361 -0.413452
rtoes -37.301
lfemur -63.2219 27.2195 -9.24121
ltibia 54.0802
lfoot -4.12307 3.25033
ltoes -15.277
86
root 9.25667 15.479 -16.1024 5.11428 31.1564 -12.2834
lowerback 26.2012 0.737664 1.37232
upperback 5.59731 2.10483 6.11267
thorax -8.50776 1.09208 5.33709
lowerneck -11.5437 -17.7573 -15.2868
upperneck -4.52639 -22.7355 23.8581
head 5.19347 -10.6717 7.18608
rclavicle 2.82274e-014 -3.04141e-014
rhumerus -8.20536 17.9111 -90.8982
rradius 99.1667
rwrist -4.70704
rhand -32.105 38.0478
rfingers 7.12502
rthumb -5.35012 8.13529
lclavicle 2.82274e-014 -3.04141e-014
lhumerus -0.945273 -17.415 90.6383
lradius 101.187
lwrist 17.5517
lhand -21.8229 47.8939
lfingers 7.12502
lthumb 4.57974 77.8244
rfemur -21.018 -17.5266 1.45558
rtibia 76.0849
rfoot 2.44794 -0.369784
rtoes -37.2281
lfemur -61.865 25.9108 -7.4899
ltibia 54.4889
lfoot -2.4 2.35434
ltoes -13.69
